#Comment line ignore any data following # character 
#Hierarchical Translation and Rotation (.htr) file 
[Header]	
#Header keywords are followed by a single value 
FileType HTR		#Single word string
DataType HTRS		#Translation followed by rotation and scale data
FileVersion 1		#integer
NumSegments 64		#integer
NumFrames 3		#integer
DataFrameRate 30		#integer, data frame rate in this file
EulerRotationOrder ZYX
CalibrationUnits mm
RotationUnits Degrees
GlobalAxisofGravity Y
BoneLengthAxis Y
ScaleFactor 1.00
[SegmentNames&Hierarchy]
#CHILD	PARENT
Pinger_Root GLOBAL
Pelvis Pinger_Root
L_Hip Pelvis
R_Hip Pelvis
Rear_Leg01 Pelvis
Spine1 Pelvis
L_Leg01 L_Hip
L_Leg02 L_Leg01
L_Leg03 L_Leg02
L_Foot L_Leg03
L_Toe1_01 L_Foot
L_Toe2_01 L_Foot
L_Toe3_01 L_Foot
planeAlignerLeft L_Foot
L_Toe1_02 L_Toe1_01
L_Toe1_03 L_Toe1_02
L_Toe2_02 L_Toe2_01
L_Toe2_03 L_Toe2_02
L_Toe3_02 L_Toe3_01
L_Toe3_03 L_Toe3_02
planeLockWeightLeft planeAlignerLeft
R_Leg01 R_Hip
R_Leg02 R_Leg01
R_Leg03 R_Leg02
R_Foot R_Leg03
planeAlignerRight R_Foot
R_Toe1_01 R_Foot
R_Toe2_01 R_Foot
R_Toe3_01 R_Foot
planeLockWeightRight planeAlignerRight
R_Toe1_02 R_Toe1_01
R_Toe1_03 R_Toe1_02
R_Toe2_02 R_Toe2_01
R_Toe2_03 R_Toe2_02
R_Toe3_02 R_Toe3_01
R_Toe3_03 R_Toe3_02
Rear_Leg02 Rear_Leg01
Rear_Leg03 Rear_Leg02
Rear_Leg04 Rear_Leg03
Rear_Foot Rear_Leg04
planeAlignerCenter Rear_Foot
Rear_Toe1_01 Rear_Foot
Rear_Toe2_01 Rear_Foot
Rear_Toe3_01 Rear_Foot
planeLockWeightCenter planeAlignerCenter
Rear_Toe1_02 Rear_Toe1_01
Rear_Toe1_03 Rear_Toe1_02
Rear_Toe2_02 Rear_Toe2_01
Rear_Toe2_03 Rear_Toe2_02
Rear_Toe3_02 Rear_Toe3_01
Rear_Toe3_03 Rear_Toe3_02
Back_Bone Spine1
Head Spine1
Motor_Bone Back_Bone
Ping_Mechanism Back_Bone
BN_LookIK Head
bottomMouth Head
L_Mouth01 Head
L_mouthFront Head
mouthGun Head
R_Mouth01 Head
R_mouthFront Head
TopMouth Head
weapon_bone Head
[BasePosition]
#SegmentName Tx, Ty, Tz, Rx, Ry, Rz, BoneLength
Pinger_Root 0.000000 0.000000 0.000000 -90.000000 0.000000 0.000000 10.000000 
Pelvis 0.000000 0.000000 0.000000 0.000000 0.000000 0.000000 10.000000 
L_Hip 0.000000 0.000000 0.000000 0.000000 0.000000 0.000000 10.000000 
R_Hip 0.000000 0.000000 0.000000 0.000000 0.000000 0.000000 10.000000 
Rear_Leg01 0.000000 0.000000 0.000000 0.000000 0.000000 0.000000 10.000000 
Spine1 0.000000 0.000000 0.000000 0.000000 0.000000 0.000000 10.000000 
L_Leg01 0.000000 0.000000 0.000000 0.000000 0.000000 0.000000 10.000000 
L_Leg02 0.000000 0.000000 0.000000 0.000000 0.000000 0.000000 10.000000 
L_Leg03 0.000000 0.000000 0.000000 0.000000 0.000000 0.000000 10.000000 
L_Foot 0.000000 0.000000 0.000000 0.000000 0.000000 0.000000 10.000000 
L_Toe1_01 0.000000 0.000000 0.000000 0.000000 0.000000 0.000000 10.000000 
L_Toe2_01 0.000000 0.000000 0.000000 0.000000 0.000000 0.000000 10.000000 
L_Toe3_01 0.000000 0.000000 0.000000 0.000000 0.000000 0.000000 10.000000 
planeAlignerLeft 0.000000 0.000000 0.000000 0.000000 0.000000 0.000000 10.000000 
L_Toe1_02 0.000000 0.000000 0.000000 0.000000 0.000000 0.000000 10.000000 
L_Toe1_03 0.000000 0.000000 0.000000 0.000000 0.000000 0.000000 10.000000 
L_Toe2_02 0.000000 0.000000 0.000000 0.000000 0.000000 0.000000 10.000000 
L_Toe2_03 0.000000 0.000000 0.000000 0.000000 0.000000 0.000000 10.000000 
L_Toe3_02 0.000000 0.000000 0.000000 0.000000 0.000000 0.000000 10.000000 
L_Toe3_03 0.000000 0.000000 0.000000 0.000000 0.000000 0.000000 10.000000 
planeLockWeightLeft 0.000000 0.000000 0.000000 0.000000 0.000000 0.000000 10.000000 
R_Leg01 0.000000 0.000000 0.000000 0.000000 0.000000 0.000000 10.000000 
R_Leg02 0.000000 0.000000 0.000000 0.000000 0.000000 0.000000 10.000000 
R_Leg03 0.000000 0.000000 0.000000 0.000000 0.000000 0.000000 10.000000 
R_Foot 0.000000 0.000000 0.000000 0.000000 0.000000 0.000000 10.000000 
planeAlignerRight 0.000000 0.000000 0.000000 0.000000 0.000000 0.000000 10.000000 
R_Toe1_01 0.000000 0.000000 0.000000 0.000000 0.000000 0.000000 10.000000 
R_Toe2_01 0.000000 0.000000 0.000000 0.000000 0.000000 0.000000 10.000000 
R_Toe3_01 0.000000 0.000000 0.000000 0.000000 0.000000 0.000000 10.000000 
planeLockWeightRight 0.000000 0.000000 0.000000 0.000000 0.000000 0.000000 10.000000 
R_Toe1_02 0.000000 0.000000 0.000000 0.000000 0.000000 0.000000 10.000000 
R_Toe1_03 0.000000 0.000000 0.000000 0.000000 0.000000 0.000000 10.000000 
R_Toe2_02 0.000000 0.000000 0.000000 0.000000 0.000000 0.000000 10.000000 
R_Toe2_03 0.000000 0.000000 0.000000 0.000000 0.000000 0.000000 10.000000 
R_Toe3_02 0.000000 0.000000 0.000000 0.000000 0.000000 0.000000 10.000000 
R_Toe3_03 0.000000 0.000000 0.000000 0.000000 0.000000 0.000000 10.000000 
Rear_Leg02 0.000000 0.000000 0.000000 0.000000 0.000000 0.000000 10.000000 
Rear_Leg03 0.000000 0.000000 0.000000 0.000000 0.000000 0.000000 10.000000 
Rear_Leg04 0.000000 0.000000 0.000000 0.000000 0.000000 0.000000 10.000000 
Rear_Foot 0.000000 0.000000 0.000000 0.000000 0.000000 0.000000 10.000000 
planeAlignerCenter 0.000000 0.000000 0.000000 0.000000 0.000000 0.000000 10.000000 
Rear_Toe1_01 0.000000 0.000000 0.000000 0.000000 0.000000 0.000000 10.000000 
Rear_Toe2_01 0.000000 0.000000 0.000000 0.000000 0.000000 0.000000 10.000000 
Rear_Toe3_01 0.000000 0.000000 0.000000 0.000000 0.000000 0.000000 10.000000 
planeLockWeightCenter 0.000000 0.000000 0.000000 0.000000 0.000000 0.000000 10.000000 
Rear_Toe1_02 0.000000 0.000000 0.000000 0.000000 0.000000 0.000000 10.000000 
Rear_Toe1_03 0.000000 0.000000 0.000000 0.000000 0.000000 0.000000 10.000000 
Rear_Toe2_02 0.000000 0.000000 0.000000 0.000000 0.000000 0.000000 10.000000 
Rear_Toe2_03 0.000000 0.000000 0.000000 0.000000 0.000000 0.000000 10.000000 
Rear_Toe3_02 0.000000 0.000000 0.000000 0.000000 0.000000 0.000000 10.000000 
Rear_Toe3_03 0.000000 0.000000 0.000000 0.000000 0.000000 0.000000 10.000000 
Back_Bone 0.000000 0.000000 0.000000 0.000000 0.000000 0.000000 10.000000 
Head 0.000000 0.000000 0.000000 0.000000 0.000000 0.000000 10.000000 
Motor_Bone 0.000000 0.000000 0.000000 0.000000 0.000000 0.000000 10.000000 
Ping_Mechanism 0.000000 0.000000 0.000000 0.000000 0.000000 0.000000 10.000000 
BN_LookIK 0.000000 0.000000 0.000000 0.000000 0.000000 0.000000 10.000000 
bottomMouth 0.000000 0.000000 0.000000 0.000000 0.000000 0.000000 10.000000 
L_Mouth01 0.000000 0.000000 0.000000 0.000000 0.000000 0.000000 10.000000 
L_mouthFront 0.000000 0.000000 0.000000 0.000000 0.000000 0.000000 10.000000 
mouthGun 0.000000 0.000000 0.000000 0.000000 0.000000 0.000000 10.000000 
R_Mouth01 0.000000 0.000000 0.000000 0.000000 0.000000 0.000000 10.000000 
R_mouthFront 0.000000 0.000000 0.000000 0.000000 0.000000 0.000000 10.000000 
TopMouth 0.000000 0.000000 0.000000 0.000000 0.000000 0.000000 10.000000 
weapon_bone 0.000000 0.000000 0.000000 0.000000 0.000000 0.000000 10.000000 
#Beginning of Data. Separated by tabs
#Fr	Tx	Ty	Tz	Rx	Ry	Rz	SF
[Pinger_Root]
97 0.000000 0.000000 0.000000 -0.000069 -0.000029 -44.999996 0.000000
98 0.000000 0.000000 0.000000 -0.000069 -0.000029 -44.999985 0.000000
99 0.000000 0.000000 0.000000 -0.000069 -0.000029 -44.999996 0.000000
[Pelvis]
97 -97.986000 857.448303 4416.966797 -95.388756 -85.384758 87.192978 4500.490723
98 -100.299637 855.134644 4438.729492 -96.192368 -85.504639 87.994156 4521.463867
99 -105.115799 850.318481 4447.792480 -97.039894 -85.623734 88.839165 4529.563965
[L_Hip]
97 5.766392 125.831482 872.656799 160.158691 -45.484894 122.312202 881.701050
98 5.766392 125.831482 872.656799 160.158691 -45.484905 122.312202 881.701050
99 5.766392 125.831482 872.656799 160.158691 -45.484905 122.312202 881.701050
[R_Hip]
97 5.765438 125.836372 -872.654907 38.087841 49.812687 125.703735 881.699829
98 5.765438 125.836372 -872.654907 38.087830 49.812672 125.703735 881.699829
99 5.765438 125.836372 -872.654907 38.087841 49.812687 125.703735 881.699829
[Rear_Leg01]
97 -192.298416 -925.602966 -0.001907 170.711456 12.474071 -164.803055 945.367432
98 -192.298416 -925.602966 -0.001907 170.668045 12.427611 -164.792435 945.367432
99 -192.298416 -925.602966 -0.001907 170.624649 12.381161 -164.781799 945.367432
[Spine1]
97 290.604584 5.007505 0.000477 7.247412 -1.377091 19.132421 290.647736
98 290.604584 5.007505 0.000477 7.253284 -1.353970 19.147905 290.647736
99 290.604584 5.007505 0.000477 7.259162 -1.330850 19.163393 290.647736
[L_Leg01]
97 761.932007 -0.002384 -0.069261 38.795746 -20.092871 -14.604396 761.932068
98 761.932007 -0.002384 -0.069261 39.030991 -19.664669 -15.417988 761.932068
99 761.932007 -0.002384 -0.069261 39.104900 -19.523062 -15.711539 761.932068
[L_Leg02]
97 1441.140503 -0.000954 -0.000715 3.850306 -0.191373 -140.340439 1441.140503
98 1441.140503 -0.000954 -0.000715 3.714840 -0.191749 -139.166595 1441.140503
99 1441.140503 -0.000954 -0.000715 3.667780 -0.188346 -138.733704 1441.140503
[L_Leg03]
97 1686.963989 -0.000715 -0.000954 -0.034867 0.014014 119.523338 1686.963989
98 1686.963989 -0.000715 -0.000954 -0.034057 0.012535 119.340233 1686.963989
99 1686.963989 -0.000715 -0.000954 -0.034057 0.012535 119.340233 1686.963989
[L_Foot]
97 3041.570068 -30.715107 11.297464 -21.582407 24.250198 55.915726 3041.746094
98 3041.570068 -30.715107 11.297464 -21.469521 24.296329 55.717064 3041.746094
99 3041.570068 -30.715107 11.297464 -21.356764 24.342817 55.518414 3041.746094
[L_Toe1_01]
97 -188.216690 -224.732346 -21.137953 89.330780 -2.396120 -161.427643 293.899567
98 -188.216690 -224.732346 -21.137953 89.330788 -2.396121 -161.427643 293.899567
99 -188.216690 -224.732346 -21.137953 89.330788 -2.396121 -161.427643 293.899567
[L_Toe2_01]
97 200.746536 -219.926590 148.838394 -78.791496 -10.652695 -43.374847 332.896027
98 200.746536 -219.926590 148.838394 -78.791496 -10.652695 -43.374847 332.896027
99 200.746536 -219.926590 148.838394 -78.791496 -10.652695 -43.374847 332.896027
[L_Toe3_01]
97 188.832520 -219.859131 -191.078659 -109.186691 26.104874 -48.222931 347.140900
98 188.832520 -219.859131 -191.078659 -109.186691 26.104874 -48.222931 347.140900
99 188.832520 -219.859131 -191.078659 -109.186691 26.104870 -48.222927 347.140900
[planeAlignerLeft]
97 0.812531 -811.448792 -0.314951 0.000000 -90.000000 -90.001900 811.449280
98 0.812531 -811.448792 -0.314951 0.000000 -90.000000 -90.001900 811.449280
99 0.812531 -811.448792 -0.314951 0.000000 -90.000000 -90.001900 811.449280
[L_Toe1_02]
97 413.761139 0.000477 0.000000 0.000203 -25.410625 -0.000182 413.761139
98 413.761139 0.000477 0.000000 0.000203 -25.410625 -0.000182 413.761139
99 413.761139 0.000477 0.000000 0.000203 -25.410625 -0.000182 413.761139
[L_Toe1_03]
97 464.317322 0.000358 -0.000089 0.004933 62.473137 0.004933 464.317322
98 464.317322 0.000358 -0.000089 0.004933 62.473137 0.004933 464.317322
99 464.317322 0.000358 -0.000089 0.004933 62.473137 0.004933 464.317322
[L_Toe2_02]
97 342.235809 -0.000477 0.000238 -0.000101 -70.104240 0.000129 342.235809
98 342.235809 -0.000477 0.000238 -0.000101 -70.104240 0.000129 342.235809
99 342.235809 -0.000477 0.000238 -0.000101 -70.104240 0.000129 342.235809
[L_Toe2_03]
97 420.210846 -0.000715 0.000000 0.016997 82.081482 0.016997 420.210846
98 420.210846 -0.000715 0.000000 0.016997 82.081482 0.016997 420.210846
99 420.210846 -0.000715 0.000000 0.016997 82.081482 0.016997 420.210846
[L_Toe3_02]
97 329.270111 0.000954 0.000000 0.001178 -80.668320 0.001178 329.270111
98 329.270111 0.000954 0.000000 0.001178 -80.668365 0.001178 329.270111
99 329.270111 0.000954 0.000000 0.001178 -80.668365 0.001178 329.270111
[L_Toe3_03]
97 439.137451 -0.001907 0.000954 -179.996323 77.872643 -179.992813 439.137451
98 439.137451 -0.001907 0.000954 -179.996323 77.872643 -179.992813 439.137451
99 439.137451 -0.001907 0.000954 -179.996323 77.872620 -179.992813 439.137451
[planeLockWeightLeft]
97 -0.000954 0.000238 -0.000305 -0.011826 -0.004376 0.005620 0.001029
98 -0.000954 0.000238 -0.000305 -0.011826 -0.004376 0.005620 0.001029
99 -0.000954 0.000238 -0.000305 -0.011826 -0.004376 0.005620 0.001029
[R_Leg01]
97 761.455627 -0.001907 -0.000358 113.560028 -20.924692 39.602375 761.455688
98 761.455627 -0.001907 -0.000358 113.367645 -19.974737 40.303883 761.455688
99 761.455627 -0.001907 -0.000358 113.267052 -19.481714 40.635464 761.455688
[R_Leg02]
97 1441.140625 0.000000 -0.000238 -1.503534 -0.271317 -123.425987 1441.140625
98 1441.140625 0.000000 -0.000238 -1.429999 -0.237292 -121.399399 1441.140625
99 1441.140625 0.000000 -0.000238 -1.388091 -0.225775 -120.273857 1441.140625
[R_Leg03]
97 1686.963989 0.000954 0.001431 0.081830 -0.046892 132.571823 1686.963989
98 1686.963989 0.000954 0.001431 0.080033 -0.042002 132.052750 1686.963989
99 1686.963989 0.000954 0.001431 0.080105 -0.041864 131.855026 1686.963989
[R_Foot]
97 3041.560059 -30.531288 -11.204481 13.688762 -23.108463 42.015713 3041.734131
98 3041.560059 -30.531288 -11.204481 13.664714 -23.146784 41.463181 3041.734131
99 3041.560059 -30.531288 -11.204481 13.721790 -23.148081 41.174339 3041.734131
[planeAlignerRight]
97 -0.635147 -812.270569 -0.364304 0.000000 -89.960434 -90.005180 812.270874
98 -0.635147 -812.270569 -0.364304 0.000000 -89.960434 -90.005180 812.270874
99 -0.635147 -812.270569 -0.364304 0.000000 -89.960434 -90.005180 812.270874
[R_Toe1_01]
97 -188.383347 -224.864899 21.052242 90.478722 3.231926 -161.378860 294.101532
98 -188.383347 -224.864899 21.052242 90.478722 3.231924 -161.378845 294.101532
99 -188.383347 -224.864899 21.052242 90.478722 3.231926 -161.378860 294.101532
[R_Toe2_01]
97 200.637817 -220.002121 -148.787384 -105.368958 18.813934 -49.808273 332.857574
98 200.637817 -220.002121 -148.787384 -105.368958 18.813929 -49.808262 332.857574
99 200.637817 -220.002121 -148.787384 -105.368958 18.813929 -49.808262 332.857574
[R_Toe3_01]
97 188.606735 -220.092957 191.126343 -76.041084 -6.322367 -46.892487 347.192566
98 188.606735 -220.092957 191.126343 -76.041084 -6.322367 -46.892487 347.192566
99 188.606735 -220.092957 191.126343 -76.041084 -6.322367 -46.892487 347.192566
[planeLockWeightRight]
97 -0.000477 0.000000 0.000000 -0.011823 -0.004379 -0.000027 0.000477
98 -0.000477 0.000000 0.000000 -0.011823 -0.004379 -0.000027 0.000477
99 -0.000477 0.000000 0.000000 -0.011823 -0.004379 -0.000027 0.000477
[R_Toe1_02]
97 413.762085 0.000477 -0.000119 0.001401 -23.743965 0.001401 413.762085
98 413.762085 0.000477 -0.000119 0.001401 -23.743965 0.001401 413.762085
99 413.762085 0.000477 -0.000119 0.001401 -23.743965 0.001401 413.762085
[R_Toe1_03]
97 464.317810 0.000000 0.001088 0.008919 74.877419 0.008919 464.317810
98 464.317810 0.000000 0.001088 0.008919 74.877419 0.008919 464.317810
99 464.317810 0.000000 0.001088 0.008919 74.877419 0.008919 464.317810
[R_Toe2_02]
97 342.234741 -0.000954 0.000238 0.001188 -72.305504 0.001188 342.234741
98 342.234741 -0.000954 0.000238 0.001188 -72.305443 0.001188 342.234741
99 342.234741 -0.000954 0.000238 0.001188 -72.305405 0.001188 342.234741
[R_Toe2_03]
97 420.210846 0.000715 -0.000268 0.028198 85.229233 0.028198 420.210846
98 420.210846 0.000715 -0.000268 0.028198 85.229149 0.028198 420.210846
99 420.210846 0.000715 -0.000268 0.028198 85.229149 0.028198 420.210846
[R_Toe3_02]
97 329.270355 -0.000477 -0.000954 0.001177 -80.843628 0.001177 329.270355
98 329.270355 -0.000477 -0.000954 0.001177 -80.843628 0.001177 329.270355
99 329.270355 -0.000477 -0.000954 0.001177 -80.843628 0.001177 329.270355
[R_Toe3_03]
97 439.137939 0.000238 0.001431 -179.996658 77.078468 -179.993134 439.137939
98 439.137939 0.000238 0.001431 -179.996658 77.078522 -179.993134 439.137939
99 439.137939 0.000238 0.001431 -179.996658 77.078552 -179.993134 439.137939
[Rear_Leg02]
97 1162.777710 -0.029802 0.005960 0.072089 0.057410 -130.214859 1162.777710
98 1162.777710 -0.029802 0.005960 0.070083 0.063541 -129.499573 1162.777710
99 1162.777710 -0.029802 0.005960 0.074652 0.061314 -129.319061 1162.777710
[Rear_Leg03]
97 607.192505 -0.013351 -0.073195 0.010556 -0.004972 66.798187 607.192505
98 607.192505 -0.013351 -0.073195 0.010563 -0.004958 66.644318 607.192505
99 607.192505 -0.013351 -0.073195 0.010569 -0.004944 66.490402 607.192505
[Rear_Leg04]
97 995.874512 -0.020504 -0.011921 -0.043747 -0.017554 63.337002 995.874573
98 995.874512 -0.020504 -0.011921 -0.043668 -0.017751 62.820522 995.874573
99 995.874512 -0.020504 -0.011921 -0.043647 -0.017802 62.687298 995.874573
[Rear_Foot]
97 3096.176270 -0.067472 -0.041425 -0.273302 80.875275 -170.704575 3096.176270
98 3096.176270 -0.067472 -0.041425 -0.272633 80.833267 -170.764175 3096.176270
99 3096.176270 -0.067472 -0.041425 -0.271687 80.791237 -170.823502 3096.176270
[planeAlignerCenter]
97 0.350077 0.966311 -838.790894 0.000009 0.000003 -179.999985 838.791565
98 0.350077 0.966311 -838.790894 0.000009 0.000003 -179.999985 838.791565
99 0.350077 0.966311 -838.790894 0.000009 0.000003 -179.999985 838.791565
[Rear_Toe1_01]
97 0.653352 83.966492 -371.173737 0.294227 41.922657 90.412277 380.553192
98 0.653352 83.966492 -371.173737 0.294273 41.922619 90.412315 380.553192
99 0.653352 83.966492 -371.173737 0.294318 41.922588 90.412338 380.553192
[Rear_Toe2_01]
97 178.200760 -294.826019 -362.060547 -2.182863 34.542213 -64.361259 499.765686
98 178.200760 -294.826019 -362.060547 -2.182831 34.542168 -64.361221 499.765686
99 178.200760 -294.826019 -362.060547 -2.182801 34.542133 -64.361198 499.765686
[Rear_Toe3_01]
97 -153.359680 -308.780914 -362.060852 3.870838 33.514248 -112.318695 499.952881
98 -153.359680 -308.780914 -362.060852 3.870838 33.514248 -112.318695 499.952881
99 -153.359680 -308.780914 -362.060852 3.870838 33.514248 -112.318695 499.952881
[planeLockWeightCenter]
97 -0.000062 0.000238 0.000000 -0.011814 -0.004373 -0.000015 0.000246
98 -0.000062 0.000238 0.000000 -0.011814 -0.004373 -0.000015 0.000246
99 -0.000062 0.000238 0.000000 -0.011814 -0.004373 -0.000015 0.000246
[Rear_Toe1_02]
97 379.707825 0.194073 0.000477 -0.000242 -31.675301 0.006934 379.707855
98 379.707825 0.194073 0.000477 -0.000242 -31.675350 0.006934 379.707855
99 379.707825 0.194073 0.000477 -0.000242 -31.675388 0.006934 379.707855
[Rear_Toe1_03]
97 500.129700 0.165701 0.000119 -0.000105 51.881336 0.007293 500.129761
98 500.129700 0.165701 0.000119 -0.000105 51.881496 0.007293 500.129761
99 500.129700 0.165701 0.000119 -0.000105 51.881638 0.007294 500.129761
[Rear_Toe2_02]
97 340.494507 0.000238 -0.000954 0.001192 -69.854523 0.001192 340.494507
98 340.494507 0.000238 -0.000954 0.001192 -69.854523 0.001192 340.494507
99 340.494507 0.000238 -0.000954 0.001192 -69.854523 0.001192 340.494507
[Rear_Toe2_03]
97 433.103577 0.000000 0.000238 0.006694 69.804291 0.006694 433.103546
98 433.103577 0.000000 0.000238 0.006694 69.804291 0.006694 433.103546
99 433.103577 0.000000 0.000238 0.006694 69.804291 0.006694 433.103546
[Rear_Toe3_02]
97 340.494141 -0.000358 -0.000477 0.008285 -67.268761 -0.009458 340.494171
98 340.494141 -0.000358 -0.000477 0.008285 -67.268761 -0.009458 340.494171
99 340.494141 -0.000358 -0.000477 0.008285 -67.268761 -0.009458 340.494171
[Rear_Toe3_03]
97 433.103577 0.001431 -0.000238 -0.000971 65.951447 -0.004546 433.103546
98 433.103577 0.001431 -0.000238 -0.000971 65.951492 -0.004546 433.103546
99 433.103577 0.001431 -0.000238 -0.000971 65.951553 -0.004546 433.103546
[Back_Bone]
97 1312.175781 -701.934692 0.000954 0.000023 -0.000007 -85.606667 1488.125488
98 1312.175781 -701.934692 0.000954 0.000023 -0.000007 -85.606667 1488.125488
99 1312.175781 -701.934692 0.000954 0.000023 -0.000007 -85.606667 1488.125488
[Head]
97 1406.159424 809.709290 0.001431 0.000625 -1.475623 7.768025 1622.625488
98 1406.159424 809.709290 0.001431 0.000625 -1.475623 7.768026 1622.625488
99 1406.159424 809.709290 0.001431 0.000625 -1.475623 7.768026 1622.625488
[Motor_Bone]
97 1158.364380 -417.834747 0.000477 -0.114406 0.066669 -105.915695 1231.419434
98 1158.364380 -417.834747 0.000477 -0.113811 0.066964 -105.915703 1231.419434
99 1158.364380 -417.834747 0.000477 -0.113217 0.067259 -105.915695 1231.419434
[Ping_Mechanism]
97 1233.855103 -441.499939 -0.537951 0.000103 -0.000053 82.120995 1310.465942
98 1233.837524 -441.545380 -0.487143 0.000103 -0.000053 82.120995 1310.464600
99 1233.819702 -441.590790 -0.436335 0.000103 -0.000053 82.120995 1310.463135
[BN_LookIK]
97 193.241119 1380.371704 -0.002861 0.000000 89.965736 -31.038179 1393.832153
98 193.241119 1380.371704 -0.002861 0.000000 89.965736 -31.038179 1393.832153
99 193.241119 1380.371704 -0.002861 0.000000 89.965736 -31.038179 1393.832153
[bottomMouth]
97 -435.092926 615.759399 -0.000954 -0.000022 0.000016 73.527184 753.966492
98 -435.092926 615.759399 -0.000954 -0.000022 0.000016 73.527184 753.966492
99 -435.092926 615.759399 -0.000954 -0.000022 0.000016 73.527184 753.966492
[L_Mouth01]
97 554.440979 7.658243 838.222046 150.204178 23.759130 109.605339 1005.027161
98 554.440979 7.658243 838.222046 150.204178 23.759130 109.605339 1005.027161
99 554.440979 7.658243 838.222046 150.204178 23.759130 109.605339 1005.027161
[L_mouthFront]
97 551.629089 934.514771 339.150421 0.000081 2.804060 79.119301 1136.941284
98 551.629089 934.514771 339.150421 0.000081 2.804060 79.119301 1136.941284
99 551.629089 934.514771 339.150421 0.000081 2.804060 79.119301 1136.941284
[mouthGun]
97 55.332661 1627.420898 0.000000 0.000023 0.000009 -11.038128 1628.361328
98 55.332661 1627.420898 0.000000 0.000023 0.000009 -11.038128 1628.361328
99 55.332661 1627.420898 0.000000 0.000023 0.000009 -11.038128 1628.361328
[R_Mouth01]
97 554.442383 7.659197 -838.223938 29.795891 -23.759109 109.605331 1005.029541
98 554.442383 7.659197 -838.223938 29.795891 -23.759109 109.605331 1005.029541
99 554.442383 7.659197 -838.223938 29.795891 -23.759109 109.605331 1005.029541
[R_mouthFront]
97 551.629089 934.514282 -339.151367 0.000029 -2.803930 79.119133 1136.941162
98 551.629089 934.514282 -339.151367 0.000029 -2.803930 79.119133 1136.941162
99 551.629089 934.514282 -339.151367 0.000029 -2.803930 79.119133 1136.941162
[TopMouth]
97 461.269867 -56.106091 -0.008583 -0.000059 -0.000268 92.025169 464.669525
98 461.269867 -56.106091 -0.008583 -0.000059 -0.000268 92.025169 464.669525
99 461.269867 -56.106091 -0.008583 -0.000059 -0.000268 92.025169 464.669525
[weapon_bone]
97 -987.239868 1448.372803 0.001431 0.000000 89.965736 -31.038221 1752.833740
98 -987.239868 1448.372803 0.001431 0.000000 89.965736 -31.038221 1752.833740
99 -987.239868 1448.372803 0.001431 0.000000 89.965736 -31.038221 1752.833740
